# xmcd
#
# Track frame offsets: 
#        182
#        14320
#        32095
#        45855
#
# Disc length: 803 seconds
#
# Revision: 0
# Processed by: cddbd v1.4PL0 Copyright (c) Steve Scherf et al.
# Submitted via: ExactAudioCopy v0.90b3
#
DISCID=21032104
DTITLE=Kevin Denney - Sampler
DYEAR=1900
DGENRE=Country
TTITLE0=I'll Go Away
TTITLE1=That's Just Jesse
TTITLE2=Cadillac Tears
TTITLE3=It Don't Matter
EXTD=
EXTT0=
EXTT1=
EXTT2=
EXTT3=
PLAYORDER=
